<svg xmlns="http://www.w3.org/2000/svg" viewBox="0 0 190 209.25843"><defs><style>.cls-1{fill:#ba782a;}.cls-2{fill:#faa434;}</style></defs><g id="Layer_2" data-name="Layer 2"><g id="Objects"><path class="cls-1" d="M107.17679,114.06635c-.2383-2.8593-.5079-5.7129-.8301-8.562-.1524-1.334-.3076-2.6621-.4785-3.9946-.0743-.5156-.1475-1.0317-.2237-1.5493-.7236-4.8433-1.5713-9.6724-2.6914-14.438-.3213-1.3721-.6709-2.7412-1.03809-4.1074-.04681.1504-.10251.2954-.15041.4482a213.95375,213.95375,0,0,0-5.3837,20.7168c-3.3926,15.8726-5.4253,31.9839-8.6123,47.8955-1.6119,8.0615-3.2671,16.3369-6.3179,24.0039-2.7515,6.919-6.1719,13.6973-13.80469,16.1573-14.56891,4.6943-21.42191-12.8799-24.731-23.3536-3.88331-12.2841-6.52971-24.9472-9.601-37.4521q-.876-3.5727-1.794-7.1397c-3.42531,16.5245-5.19531,33.5669-11.60111,49.1924-.0483.1182-.1005.2422-.14889.3594l56.20409,32.5664c5.83691,3.3818,13.7852,4.8311,21.44391,4.3633.23629-.4639.47259-.9238.69329-1.3945.1953-.4141.3838-.8262.5703-1.2422.8233-2.0703,1.586-4.168,2.252-6.2969a135.14781,135.14781,0,0,0,3.8252-15.4893q.79395-4.2216,1.4014-8.4775a.108.108,0,0,1,.00681-.0322c.07709-.6182.15619-1.2325.22749-1.8496.1748-1.4893.3418-2.9795.4883-4.4727q.9024-9.1728,1.20221-18.3979A326.10659,326.10659,0,0,0,107.17679,114.06635Z"/><path class="cls-1" d="M132.40819,152.29685c-.5371,14.4443-1.6465,29.7793-5.0605,44.3545l44.2011-25.7236C181.80269,164.98245,190,150.42625,190,138.57465v-3.5141l-72.47071-78.3775c4.7383,6.2261,7.0752,14.8457,8.8066,22.3648C131.82229,102.82715,133.31349,127.96725,132.40819,152.29685Z"/><path class="cls-2" d="M171.54879,38.33985,113.165,4.45605c-10.25581-5.9414-26.98631-5.9414-37.24071,0l-57.8789,33.8838C7.79049,44.28315,0,58.84175,0,70.68945v67.8852a32.70081,32.70081,0,0,0,1.66019,11.4908c2.4502-10.1109,3.8369-20.3828,5.9277-30.5772,1.5815-7.7197,3.0498-15.6909,6.1069-22.9878,2.6104-6.2373,6.2115-13.9526,13.6836-15.4126,8.0161-1.562,14.4688,2.3604,18.4917,9.1558l23.4458,24.9258c2.0645-12.2256,4.3589-24.4209,7.9033-36.3033,2.565-8.6049,5.8013-20.3974,13.2154-26.3066,9.6377-7.6851,19.8896-5.3496,27.0957,4.1235L190,135.06055V70.68945C190,58.84175,181.80269,44.28315,171.54879,38.33985Z"/><path class="cls-1" d="M56.79589,123.35885c2.1343,8.7119,4.0664,17.5059,6.3589,26.1934,1.5015-6.8023,2.7124-13.6792,3.8501-20.5362.76511-4.6088,1.51411-9.2294,2.2939-13.8466l-23.4643-24.9258C51.668,100.10105,54.10109,112.35985,56.79589,123.35885Z"/></g></g></svg>